<svg width="512" height="512" viewBox="0 0 512 512" fill="none" xmlns="http://www.w3.org/2000/svg">
  <rect width="512" height="512" fill="#9333ea"/>
  <path d="M256 130C230 130 215 140 215 160C215 175 225 185 240 185C255 185 265 175 265 160C265 155 263 152 260 150C275 150 290 160 290 180L270 330C265 360 245 380 215 380C190 380 175 365 175 345C175 330 185 320 200 320C215 320 225 330 225 345C225 350 223 353 220 355C235 355 250 345 250 325L270 175C275 145 295 130 325 130C350 130 365 145 365 165C365 180 355 190 340 190C325 190 315 180 315 165C315 160 317 157 320 155C305 155 290 165 290 185L256 130Z" fill="white"/>
</svg>
